<?xml version="1.0" encoding="UTF-8"?>
<svg version="1.1" xmlns="http://www.w3.org/2000/svg" width="300" height="300">
<path d="M0 0 C0.93810265 -0.00367669 1.87620529 -0.00735338 2.84273529 -0.01114148 C6.00006143 -0.02219319 9.15735467 -0.02602473 12.31469727 -0.02983093 C14.57312627 -0.03609459 16.83155424 -0.0427413 19.08998108 -0.04974365 C25.2370366 -0.06716535 31.38408434 -0.07770917 37.53115845 -0.08594918 C41.37209203 -0.09109815 45.2130232 -0.09717401 49.05395508 -0.10346031 C59.69464881 -0.12033331 70.33533913 -0.13496669 80.9760437 -0.14220905 C83.73720298 -0.14411887 86.49836224 -0.14603921 89.25952148 -0.147995 C89.94577158 -0.14847874 90.63202167 -0.14896248 91.33906722 -0.14946087 C102.4442227 -0.15775281 113.54927017 -0.18307456 124.65437853 -0.21557567 C136.064271 -0.24869547 147.47408298 -0.26632997 158.88402843 -0.26985329 C165.28676118 -0.2722026 171.68932333 -0.28114746 178.0920105 -0.30631447 C184.11994528 -0.32962464 190.14759752 -0.33381635 196.17556572 -0.32355309 C198.38338601 -0.3230583 200.59122034 -0.32936185 202.79899788 -0.34310913 C219.20948371 -0.43954232 231.1485624 0.88365755 243.94360352 12.14717102 C251.05827535 19.56027708 257.05041292 28.60722382 257.07782459 39.20063114 C257.08228244 40.00299263 257.08674028 40.80535412 257.09133321 41.63202959 C257.09105667 42.94567473 257.09105667 42.94567473 257.09077454 44.28585815 C257.09445122 45.22073167 257.09812791 46.15560519 257.10191602 47.11880821 C257.11295079 50.25920877 257.11679638 53.39957624 257.12060547 56.53999329 C257.12687034 58.7887177 257.13351716 61.03744108 257.14051819 63.28616333 C257.16156035 70.67862731 257.17192156 78.0710915 257.18188477 85.46357727 C257.18593243 88.00912423 257.19004936 90.55467108 257.19423485 93.10021782 C257.21110452 103.69033933 257.22573851 114.28045869 257.23298359 124.87059116 C257.23489336 127.61748824 257.23681371 130.36438531 257.23876953 133.11128235 C257.23925327 133.79397633 257.23973701 134.4766703 257.24023541 135.18005197 C257.24852921 146.23017863 257.27385554 157.28019681 257.30635021 168.33027614 C257.33947009 179.68595681 257.35710444 191.04156305 257.36062783 202.39729923 C257.3629769 208.7687183 257.37191892 215.13996593 257.397089 221.51133919 C257.42039926 227.50891894 257.42459086 233.50621471 257.41432762 239.50382805 C257.41383286 241.70036133 257.42013572 243.89690873 257.43388367 246.09339905 C257.53409506 263.05878279 255.85617104 275.46633266 243.87719727 288.37373352 C235.24238528 296.62237323 225.6034236 300.29678334 213.80455017 300.29434204 C212.85757485 300.29801873 211.91059954 300.30169542 210.934928 300.30548352 C207.74762887 300.3165356 204.56036232 300.32036682 201.37304688 300.32417297 C199.09329118 300.33043656 196.81353651 300.33708326 194.53378296 300.34408569 C188.32894515 300.36150704 182.12411505 300.37205093 175.91925883 300.38029122 C172.042821 300.38543982 168.16638556 300.39151567 164.28994942 300.39780235 C153.5523181 300.41467462 142.8146905 300.42930848 132.0770483 300.43655109 C129.29078609 300.43846092 126.50452389 300.44038126 123.71826172 300.44233704 C122.67952127 300.44306265 122.67952127 300.44306265 121.61979616 300.44380292 C110.41050121 300.45209707 99.20131318 300.47742294 87.99206489 300.50991771 C76.47708826 300.54302579 64.96218197 300.56067083 53.44715601 300.56419533 C46.98465211 300.56654567 40.52231712 300.57550408 34.05985832 300.60065651 C27.9769354 300.62394847 21.89429248 300.6281657 15.81133652 300.61789513 C13.58213304 300.61739991 11.35291572 300.62371612 9.1237545 300.63745117 C6.07268357 300.65519409 3.02261486 300.64805157 -0.02845764 300.63491821 C-1.34158191 300.65137208 -1.34158191 300.65137208 -2.68123394 300.66815835 C-14.27916599 300.54820943 -22.76667654 295.11467171 -30.96264648 287.33857727 C-39.08763959 278.76813498 -43.20370836 268.7677629 -43.21029663 257.10423279 C-43.21467888 256.16754127 -43.21906114 255.23084976 -43.22357619 254.26577365 C-43.23697774 251.11311895 -43.24314621 247.96049221 -43.24926758 244.80781555 C-43.25716773 242.55263136 -43.26543663 240.29744843 -43.27404785 238.04226685 C-43.30028698 230.62151805 -43.3155815 223.20076357 -43.32983398 215.77998352 C-43.33519367 213.22488781 -43.34057117 210.66979214 -43.34596634 208.1146965 C-43.3676015 197.48258712 -43.38648748 186.85048062 -43.39758873 176.21835518 C-43.40051826 173.45927552 -43.40347993 170.7001959 -43.40649414 167.94111633 C-43.40724019 167.25539086 -43.40798624 166.56966539 -43.4087549 165.86316036 C-43.42138941 154.77226205 -43.45458622 143.68152475 -43.49629597 132.59070159 C-43.53880986 121.19209689 -43.56188792 109.79361405 -43.56750929 98.39492309 C-43.5711577 91.99990724 -43.58312461 85.60516402 -43.61561203 79.21022415 C-43.64576999 73.18716516 -43.65197662 67.16454264 -43.64022827 61.14142418 C-43.64000816 58.93766208 -43.64826122 56.73387927 -43.66588211 54.53018761 C-43.79887623 36.93121993 -41.80245328 24.41798218 -29.21655273 11.21748352 C-20.95303643 3.34263976 -11.21967689 -0.00234372 0 0 Z M27.94360352 62.14717102 C26.47016649 65.09404507 26.80737872 67.7203205 26.7964325 71.01116943 C26.79275581 71.72538325 26.78907912 72.43959706 26.78529102 73.17545372 C26.77423371 75.58066549 26.77040693 77.98583409 26.76660156 80.3910675 C26.7603386 82.11061237 26.75369195 83.83015587 26.74668884 85.54969788 C26.72926695 90.22937898 26.71872448 94.90904986 26.71048331 99.58875537 C26.70533713 102.50982578 26.69926132 105.43089298 26.69297218 108.35196114 C26.67391933 117.48386482 26.65968673 126.61576039 26.65136021 135.74768013 C26.64157747 146.30336918 26.61523137 156.8588491 26.57485932 167.41446441 C26.54475161 175.56480449 26.52989655 183.71508442 26.5265792 191.86547905 C26.52422316 196.7376886 26.5151908 201.60967477 26.49011803 206.48182487 C26.46692469 211.06272012 26.46256857 215.6432435 26.47287941 220.22418213 C26.47337697 221.90805863 26.466992 223.5919529 26.45332336 225.275774 C26.43573967 227.56969754 26.44264202 229.8622667 26.45585632 232.15618896 C26.45346797 233.44133613 26.45107962 234.72648329 26.44861889 236.0505743 C26.65166381 239.19370314 26.65166381 239.19370314 28.72408772 241.0216074 C33.58892742 243.48867098 38.3132446 243.30107939 43.67749023 243.30830383 C45.00061218 243.31575119 45.00061218 243.31575119 46.35046387 243.323349 C49.27474758 243.33796994 52.19897671 243.34477887 55.12329102 243.35029602 C56.63219091 243.35453709 56.63219091 243.35453709 58.17157364 243.35886383 C63.51371778 243.37387017 68.85583491 243.38308554 74.19799805 243.3874054 C79.65735304 243.39283699 85.11645185 243.41674648 90.57572746 243.44537735 C94.81947479 243.46424164 99.06316395 243.46922217 103.30694962 243.47074127 C105.31510923 243.4737242 107.32326895 243.48160024 109.33138657 243.49492645 C133.12370861 243.64131099 162.00226706 242.85567999 180.75610352 226.02217102 C191.41861351 214.38801743 193.65938275 198.90401496 193.22485352 183.77998352 C192.6765629 172.59942402 190.03431066 162.11380821 181.83422852 154.08076477 C177.14385511 150.20716328 172.66586863 148.08865383 166.94360352 146.14717102 C166.61360352 145.48717102 166.28360352 144.82717102 165.94360352 144.14717102 C166.78922852 143.96154602 167.63485352 143.77592102 168.50610352 143.58467102 C175.65935292 140.59331218 179.72917703 134.84001934 182.87719727 127.92060852 C188.72068742 112.72325318 189.42392067 94.51858005 182.76000977 79.47529602 C176.96692385 68.64403056 166.45922044 61.86016344 154.94360352 58.14717102 C136.38211657 53.11920215 117.65859092 52.94062432 98.56860352 52.95967102 C97.54813934 52.95994293 96.52767517 52.96021484 95.47628784 52.960495 C60.49655123 51.79317912 60.49655123 51.79317912 27.94360352 62.14717102 Z " fill="#2DB6C6" transform="translate(43.056396484375,-0.1471710205078125)"/>
<path d="M0 0 C13.2195122 0 13.2195122 0 18 4 C22.242634 10.08615948 23.02433237 16.768822 22 24 C20.59146832 28.95390899 19.06809543 33.6389539 15 37 C12 38 12 38 0 38 C0 25.46 0 12.92 0 0 Z " fill="#2DB6C6" transform="translate(142,91)"/>
<path d="M0 0 C12.9 0 12.9 0 17 3 C22.02860602 9.38768873 22.65553714 15.07396007 22 23 C20.7630381 28.61989775 18.49825994 32.28893555 14 36 C11 37 11 37 0 37 C0 24.79 0 12.58 0 0 Z " fill="#2DB6C6" transform="translate(142,168)"/>
</svg>
