<?xml version="1.0" standalone="no"?>
<!DOCTYPE svg PUBLIC "-//W3C//DTD SVG 20010904//EN"
 "http://www.w3.org/TR/2001/REC-SVG-20010904/DTD/svg10.dtd">
<svg version="1.0" xmlns="http://www.w3.org/2000/svg"
 width="225.000000pt" height="225.000000pt" viewBox="0 0 225.000000 225.000000"
 preserveAspectRatio="xMidYMid meet">

<g transform="translate(0.000000,225.000000) scale(0.100000,-0.100000)"
fill="#000000" stroke="none">
<path d="M985 2239 c-161 -19 -339 -84 -477 -174 -109 -72 -281 -251 -345
-359 -198 -336 -214 -734 -43 -1081 63 -127 126 -211 244 -322 148 -140 316
-229 520 -275 130 -30 355 -30 483 0 226 52 410 157 573 328 258 271 361 642
280 1014 -47 220 -152 403 -322 566 -248 237 -570 344 -913 303z m-297 -433
c65 -34 102 -96 102 -172 0 -97 -81 -176 -180 -176 -120 0 -210 111 -180 224
16 57 36 84 84 113 48 29 130 34 174 11z m522 -5 c19 -10 48 -37 65 -60 25
-35 30 -52 30 -101 0 -49 -5 -66 -30 -101 -38 -54 -90 -81 -154 -81 -60 1 -97
19 -139 66 -75 85 -45 226 59 278 45 24 125 23 169 -1z m508 5 c36 -19 78 -65
91 -99 25 -64 9 -141 -37 -190 -39 -42 -77 -58 -133 -59 -64 0 -116 27 -154
81 -25 35 -30 52 -30 101 0 49 5 66 30 101 17 23 46 50 65 60 42 23 129 25
168 5z m-1041 -511 c73 -31 113 -92 113 -172 -1 -182 -233 -248 -336 -96 -98
145 61 335 223 268z m510 4 c62 -23 123 -109 123 -174 0 -71 -62 -151 -136
-175 -119 -39 -244 64 -232 190 12 120 136 201 245 159z m521 -4 c75 -32 115
-90 115 -170 0 -131 -131 -220 -250 -170 -79 33 -117 97 -111 186 9 124 132
201 246 154z m-1018 -521 c34 -17 77 -63 89 -97 25 -64 9 -141 -37 -190 -40
-42 -75 -57 -133 -57 -122 0 -207 109 -178 226 28 112 157 170 259 118z m518
-1 c43 -20 79 -65 93 -115 31 -116 -56 -228 -178 -228 -154 0 -241 182 -141
296 63 71 138 87 226 47z m512 1 c108 -54 134 -200 52 -287 -39 -42 -75 -57
-132 -57 -93 0 -157 50 -181 141 -38 145 125 272 261 203z"/>
</g>
</svg>
