<?xml version="1.0" standalone="no"?>
<!DOCTYPE svg PUBLIC "-//W3C//DTD SVG 20010904//EN"
 "http://www.w3.org/TR/2001/REC-SVG-20010904/DTD/svg10.dtd">
<svg version="1.0" xmlns="http://www.w3.org/2000/svg"
 width="255.000000pt" height="198.000000pt" viewBox="0 0 255.000000 198.000000"
 preserveAspectRatio="xMidYMid meet">

<g transform="translate(0.000000,198.000000) scale(0.100000,-0.100000)"
fill="#000000" stroke="none">
<path d="M496 1919 c-225 -197 -351 -414 -418 -714 -20 -92 -17 -370 6 -470
22 -97 74 -239 117 -320 70 -131 195 -286 312 -383 37 -32 39 -32 145 -32
l106 0 -59 37 c-322 197 -523 561 -525 948 -1 67 -5 108 -15 125 -20 35 -18
45 9 58 17 7 25 22 30 53 24 152 141 374 270 516 62 68 204 178 272 212 24 13
44 24 44 27 0 2 -51 4 -112 4 l-113 0 -69 -61z"/>
<path d="M1063 1925 c3 -30 2 -55 -2 -55 -4 0 -18 23 -31 50 -16 35 -29 50
-43 50 -18 0 -19 -5 -15 -70 3 -38 2 -68 -1 -65 -4 2 -18 26 -31 54 -16 34
-30 51 -42 51 -10 0 -18 -3 -18 -7 0 -11 83 -153 89 -153 26 1 34 21 28 74 -3
31 -2 56 2 56 4 0 18 -22 31 -50 23 -49 33 -57 57 -42 19 12 5 162 -15 162
-12 0 -14 -10 -9 -55z"/>
<path d="M1147 1973 c-10 -17 11 -47 44 -62 46 -22 45 -45 -4 -49 -46 -4 -45
-26 0 -30 21 -2 39 4 57 20 35 31 26 62 -25 82 -21 9 -39 23 -39 31 0 15 -25
21 -33 8z"/>
<path d="M1306 1958 c-3 -13 -6 -44 -6 -70 0 -46 1 -47 34 -54 66 -12 118 35
82 75 -15 16 -15 19 -1 31 21 18 19 40 -5 40 -13 0 -20 -7 -20 -20 0 -15 -7
-20 -25 -20 -18 0 -25 5 -25 20 0 27 -26 25 -34 -2z m79 -73 c0 -14 -8 -21
-27 -23 -22 -3 -28 1 -28 16 0 25 10 33 35 30 12 -2 20 -10 20 -23z"/>
<path d="M1486 1963 c-3 -10 -10 -38 -16 -63 -6 -25 -13 -53 -16 -62 -4 -13 4
-19 33 -27 21 -6 46 -11 56 -11 29 0 19 18 -18 30 -37 12 -40 17 -26 39 6 9
19 12 40 8 41 -9 42 14 1 30 -22 8 -28 16 -24 28 5 13 14 15 40 10 26 -4 34
-2 34 8 0 29 -96 38 -104 10z"/>
<path d="M1813 1955 c255 -131 463 -395 543 -690 25 -92 28 -115 28 -280 0
-165 -3 -188 -28 -280 -34 -126 -107 -278 -184 -381 -68 -92 -188 -207 -272
-261 -32 -21 -67 -43 -77 -50 -14 -10 3 -12 92 -12 l110 -1 87 81 c246 226
381 519 395 855 7 161 -9 276 -58 426 -71 219 -225 440 -402 577 l-54 41 -114
0 -114 -1 48 -24z"/>
<path d="M1635 1898 c-34 -31 -43 -86 -18 -116 10 -12 35 -29 56 -37 l37 -15
20 32 c26 43 25 52 -5 66 -26 12 -49 -3 -26 -17 19 -12 1 -42 -23 -39 -30 4
-45 52 -25 86 16 28 41 32 102 17 39 -10 34 8 -8 28 -48 23 -79 21 -110 -5z"/>
<path d="M797 1894 c-3 -3 8 -28 24 -55 31 -54 36 -78 17 -97 -17 -17 -41 1
-78 58 -25 39 -35 48 -46 39 -10 -8 -7 -20 18 -60 39 -64 66 -83 101 -70 14 6
34 22 43 37 18 26 17 28 -15 90 -30 58 -48 74 -64 58z"/>
<path d="M1791 1783 c-38 -53 -47 -71 -38 -82 9 -11 15 -8 32 13 32 41 47 34
43 -21 -4 -54 18 -74 28 -24 4 17 5 33 3 37 -2 3 11 12 29 19 23 10 32 20 32
37 0 29 -7 38 -47 66 l-32 23 -50 -68z m95 -18 c-7 -18 -47 -17 -53 1 -2 7 4
19 13 29 15 15 19 15 32 1 8 -8 12 -22 8 -31z"/>
<path d="M603 1758 l-32 -33 59 -65 58 -65 36 34 c20 19 36 39 36 43 0 14 -27
9 -40 -7 -7 -8 -19 -15 -27 -15 -24 0 -26 30 -4 54 28 30 12 42 -22 16 -22
-17 -26 -18 -37 -5 -11 13 -9 20 9 38 11 13 21 26 21 30 0 17 -29 4 -57 -25z"/>
<path d="M1265 1740 c-13 -6 -15 -9 -5 -9 8 0 22 4 30 9 18 12 2 12 -25 0z"/>
<path d="M1917 1672 c-45 -45 -55 -60 -45 -70 10 -10 25 0 70 45 56 56 71 83
45 83 -7 0 -38 -26 -70 -58z"/>
<path d="M945 1690 c-3 -5 -1 -10 4 -10 6 0 11 5 11 10 0 6 -2 10 -4 10 -3 0
-8 -4 -11 -10z"/>
<path d="M1478 1693 c7 -3 16 -2 19 1 4 3 -2 6 -13 5 -11 0 -14 -3 -6 -6z"/>
<path d="M515 1669 c-7 -11 102 -118 122 -119 30 -1 18 23 -39 74 -64 58 -73
63 -83 45z"/>
<path d="M1977 1619 c-44 -34 -66 -57 -62 -66 4 -12 -3 -13 -37 -8 -24 4 -50
11 -59 16 -9 5 -32 8 -52 7 -29 -1 -39 -8 -61 -42 -33 -51 -33 -66 2 -66 25 0
263 -65 323 -88 33 -13 39 -8 39 33 0 44 -30 78 -90 104 -27 12 -50 24 -50 26
0 3 11 12 24 21 23 15 27 14 56 -8 29 -21 33 -21 58 -7 38 21 40 59 5 99 l-28
32 -68 -53z m90 -15 c4 -11 -1 -22 -12 -31 -16 -11 -21 -11 -34 1 -12 12 -12
18 -1 30 16 21 39 20 47 0z"/>
<path d="M457 1597 c-3 -8 13 -25 39 -41 24 -15 44 -30 44 -33 0 -3 -29 -3
-65 1 -57 6 -65 4 -75 -13 -9 -18 -2 -25 59 -66 78 -50 81 -51 81 -30 0 9 -20
28 -45 43 -24 15 -45 29 -45 32 0 4 34 6 77 5 48 0 78 4 80 11 3 9 -125 104
-141 104 -2 0 -6 -6 -9 -13z"/>
<path d="M665 1376 c-31 -14 -65 -49 -65 -66 0 -6 24 3 53 20 30 16 65 30 80
30 30 0 44 15 21 24 -24 9 -56 6 -89 -8z"/>
<path d="M1645 1375 c-22 -8 -41 -15 -42 -15 -2 0 -3 -4 -3 -10 0 -6 9 -6 26
0 42 16 106 12 142 -10 26 -16 32 -17 32 -5 0 39 -93 63 -155 40z"/>
<path d="M1135 1340 c-192 -21 -495 -52 -535 -55 -45 -2 -117 -19 -127 -28
-10 -10 -18 -199 -18 -423 0 -181 3 -235 14 -247 17 -21 46 -21 249 -1 145 15
186 15 170 -1 -2 -3 -62 -11 -131 -17 -78 -8 -126 -16 -124 -23 5 -13 58 -12
171 4 62 8 92 9 100 1 16 -16 86 -13 86 5 0 9 9 15 23 15 12 0 29 4 37 10 12
8 12 10 -3 16 -10 3 -29 4 -42 2 -14 -3 -25 -2 -25 2 0 11 38 20 86 20 22 0
65 4 95 9 102 17 129 20 129 11 0 -5 -26 -12 -57 -15 -74 -8 -93 -14 -93 -27
0 -7 28 -8 86 -3 86 7 86 7 113 -22 19 -21 25 -37 23 -62 -2 -20 10 -67 32
-124 50 -128 46 -123 98 -107 24 7 47 17 52 22 6 4 20 8 33 8 13 0 23 4 23 9
0 5 8 11 18 14 24 8 72 38 102 65 14 12 32 25 40 28 16 5 80 81 80 94 0 9 -20
14 -267 61 -167 32 -173 34 -173 57 0 19 -4 23 -17 17 -41 -17 -49 -15 -66 14
-9 16 -17 47 -17 68 0 37 2 40 55 66 30 15 55 34 55 42 0 20 -2 19 -61 -11
-28 -14 -53 -24 -55 -22 -7 8 -56 480 -50 494 6 17 46 18 80 3 27 -13 30 -23
61 -209 9 -52 18 -97 21 -99 13 -13 10 20 -15 164 -25 146 -29 161 -52 172
-26 14 -95 15 -204 3z m-114 -191 c93 -99 -59 -240 -158 -147 -17 16 -23 33
-23 66 0 37 6 50 34 78 28 28 42 34 76 34 34 0 47 -6 71 -31z m-260 -18 c56
-56 28 -158 -49 -182 -47 -14 -75 -2 -95 39 -25 51 -2 123 47 153 43 26 63 24
97 -10z m299 -171 c0 -27 -43 -70 -71 -70 -12 0 -32 -12 -46 -26 -17 -19 -32
-25 -56 -23 -18 2 -44 -5 -60 -15 -18 -13 -36 -16 -55 -12 -15 4 -49 11 -76
15 -45 7 -76 29 -76 54 0 4 21 5 48 0 106 -18 245 10 346 72 50 30 46 29 46 5z
m-52 -133 c-7 -8 -21 -12 -32 -9 -20 5 -20 5 0 13 33 13 47 11 32 -4z m-43
-26 c3 -5 2 -12 -3 -15 -5 -3 -9 1 -9 9 0 17 3 19 12 6z m-125 -56 c-23 -25
-40 -32 -40 -17 0 7 49 41 59 42 3 0 -6 -11 -19 -25z m30 -10 c-7 -9 -15 -13
-17 -11 -7 7 7 26 19 26 6 0 6 -6 -2 -15z"/>
<path d="M905 1100 c-26 -29 -7 -70 34 -70 22 0 31 6 41 30 10 24 10 33 0 45
-17 21 -54 19 -75 -5z"/>
<path d="M700 1080 c-23 -23 -24 -33 -10 -61 15 -27 56 -24 76 6 15 23 15 27
0 50 -20 30 -39 32 -66 5z"/>
<path d="M1890 1295 c0 -3 21 -10 46 -16 33 -9 59 -25 96 -63 l50 -51 -21 41
c-31 62 -73 94 -127 94 -24 0 -44 -2 -44 -5z"/>
<path d="M1600 1258 c-1 -30 -2 -31 -12 -13 -15 28 -15 28 -28 20 -8 -5 -6
-14 5 -31 8 -13 11 -24 6 -24 -5 0 -13 5 -16 10 -3 6 -10 10 -16 10 -15 0 -10
-22 8 -35 14 -11 22 -10 42 6 46 36 107 22 142 -34 l21 -32 -7 30 c-10 47 -42
75 -87 75 -31 0 -38 4 -38 19 0 11 -4 23 -10 26 -6 4 -10 -7 -10 -27z"/>
<path d="M1862 1144 c-12 -8 -27 -24 -32 -35 -11 -19 -10 -19 22 1 46 28 93
26 123 -5 14 -13 25 -31 25 -40 0 -11 10 -15 35 -15 19 0 35 5 35 10 0 6 -11
10 -25 10 -30 0 -33 16 -5 23 11 3 20 10 20 16 0 14 -27 14 -35 1 -3 -5 -11
-10 -17 -10 -6 0 -4 8 5 18 17 19 23 42 11 42 -4 0 -12 -7 -19 -17 -11 -15
-14 -15 -36 0 -30 21 -78 22 -107 1z"/>
<path d="M2214 1126 c-34 -15 -44 -33 -44 -77 0 -42 15 -65 48 -77 67 -23 129
23 118 87 -10 63 -64 93 -122 67z"/>
<path d="M1632 1118 c-6 -6 -12 -25 -12 -40 0 -21 6 -29 25 -34 35 -9 57 12
53 50 -2 25 -8 32 -28 34 -14 2 -31 -3 -38 -10z"/>
<path d="M1840 1034 c-13 -32 -13 -30 6 -48 35 -36 83 -2 70 50 -9 35 -63 34
-76 -2z"/>
<path d="M1325 1018 c1 -13 3 -38 4 -55 0 -18 6 -33 12 -33 14 0 6 87 -9 102
-6 6 -9 1 -7 -14z"/>
<path d="M350 963 c-11 -26 -23 -57 -26 -70 l-6 -22 61 26 c34 14 61 32 61 39
0 15 -48 74 -60 74 -5 0 -18 -21 -30 -47z"/>
<path d="M1606 955 c-8 -22 11 -65 28 -65 20 0 29 -17 15 -26 -8 -4 -9 -3 -5
4 4 7 2 12 -3 12 -6 0 -11 -4 -11 -8 0 -11 34 -42 45 -42 5 0 17 -7 27 -16 26
-24 77 -7 105 35 26 39 21 58 -10 36 -47 -33 -133 -3 -157 55 -14 33 -25 38
-34 15z"/>
<path d="M2173 804 c-24 -24 -28 -25 -38 -10 -20 26 -28 19 -22 -21 4 -31 -2
-50 -34 -105 -22 -37 -44 -70 -49 -73 -5 -3 -21 19 -34 49 -14 31 -30 56 -36
56 -15 0 -23 -26 -16 -53 7 -30 76 -118 87 -112 4 3 33 44 64 90 53 80 57 84
90 83 40 -1 56 9 35 22 -12 8 -12 10 3 16 9 3 17 13 17 21 0 11 -7 13 -25 9
-25 -6 -26 -6 -10 18 23 35 1 43 -32 10z"/>
<path d="M1380 710 c0 -5 7 -7 15 -4 8 4 15 8 15 10 0 2 -7 4 -15 4 -8 0 -15
-4 -15 -10z"/>
<path d="M740 415 c0 -10 29 -24 34 -17 3 6 -3 12 -14 15 -11 3 -20 4 -20 2z"/>
<path d="M825 360 c-3 -6 1 -7 9 -4 18 7 21 14 7 14 -6 0 -13 -4 -16 -10z"/>
<path d="M995 260 c-3 -5 1 -10 10 -10 9 0 13 5 10 10 -3 6 -8 10 -10 10 -2 0
-7 -4 -10 -10z"/>
<path d="M1488 233 c6 -2 18 -2 25 0 6 3 1 5 -13 5 -14 0 -19 -2 -12 -5z"/>
</g>
</svg>
