<?xml version="1.0" encoding="UTF-8"?>
<svg version="1.1" xmlns="http://www.w3.org/2000/svg" width="320" height="210">
<path d="M0 0 C13.42269572 11.76438913 26.25134783 27.70892427 29.5859375 45.640625 C30.26201219 48.58652544 30.26201219 48.58652544 32.2109375 50.890625 C37.39624563 53.4179414 43.27645002 54.20534537 48.88623047 55.34423828 C63.37888851 58.75051519 75.55138042 70.34807212 83.3359375 82.578125 C92.67754502 98.75688763 95.45490058 118.33733513 90.6484375 136.515625 C84.47385338 154.35331245 73.22803402 168.54553276 56.2109375 176.890625 C46.8136402 180.89531229 37.5276883 183.0433849 27.30128479 183.03106689 C26.52269967 183.03403802 25.74411456 183.03700914 24.94193596 183.0400703 C22.34222038 183.04871711 19.74255107 183.05026216 17.14282227 183.05175781 C15.27467247 183.056389 13.40652362 183.06141406 11.53837585 183.06680298 C6.46763813 183.07990394 1.39691363 183.08636797 -3.67383838 183.09081364 C-6.84695852 183.09374935 -10.0200751 183.0978552 -13.19319344 183.10231781 C-23.13562548 183.11598948 -33.07804931 183.12565657 -43.02049011 183.1295197 C-54.46966461 183.13399344 -65.91871931 183.15151097 -77.3678574 183.1805203 C-86.23438394 183.20219999 -95.10087695 183.2122274 -103.9674297 183.21356082 C-109.25462872 183.21460477 -114.54171509 183.22042421 -119.82888603 183.23838043 C-124.81036019 183.2549691 -129.79163833 183.25696469 -134.77313042 183.24824142 C-136.59064258 183.24747667 -138.40816576 183.2517386 -140.22565079 183.26169968 C-165.29688575 183.3909273 -187.16806852 177.13816478 -205.6640625 159.453125 C-221.83440359 142.33853042 -228.48017325 122.28392038 -228.25756836 99.11230469 C-227.67321901 79.00336372 -220.41802991 61.69278191 -206.7890625 46.890625 C-206.25023437 46.26027344 -205.71140625 45.62992187 -205.15625 44.98046875 C-192.93167097 31.49657379 -174.36392618 24.46854447 -156.7890625 21.890625 C-155.26859944 21.81968582 -153.74778569 21.75528122 -152.2265625 21.703125 C-147.77734692 20.65149223 -146.8501756 18.95104465 -144.390625 15.26171875 C-130.72968093 -4.96314234 -107.75588153 -16.46023822 -84.6015625 -21.8515625 C-54.76210946 -27.40839942 -23.24833143 -19.52811682 0 0 Z " fill="#0077D4" transform="translate(227.7890625,25.109375)"/>
<path d="M0 0 C1.40693115 0.87906006 1.40693115 0.87906006 2.84228516 1.77587891 C4.46070313 2.77458008 4.46070313 2.77458008 6.11181641 3.79345703 C6.96912354 4.33160034 6.96912354 4.33160034 7.84375 4.88061523 C10.30860408 6.42746097 12.78661128 7.95264056 15.26422119 9.47894287 C16.57811195 10.28836593 17.89137477 11.0988091 19.20404053 11.91021729 C25.83426158 16.00279956 32.53304432 19.97620669 39.24206543 23.93783569 C51.13251406 30.96016128 62.97745485 38.05237335 74.75952148 45.25512695 C81.01924883 49.07714392 87.30646665 52.84267856 93.63525391 56.54931641 C95.72512283 57.77966001 97.81440808 59.01098866 99.90350342 60.24264526 C101.2542154 61.03525771 102.60758684 61.82335694 103.96368408 62.60671997 C105.84271703 63.69240877 107.71224642 64.79298067 109.58056641 65.89697266 C110.65395264 66.52192627 111.72733887 67.14687988 112.83325195 67.79077148 C115.25634766 69.62744141 115.25634766 69.62744141 116.19238281 71.70556641 C116.3548287 76.58638321 111.22422706 81.11648295 108.25634766 84.62744141 C96.46213888 97.09110444 80.88308746 105.14274058 63.56142521 105.75886917 C62.15653489 105.7669054 60.75160723 105.76957556 59.34669495 105.7678833 C58.56810983 105.77085442 57.78952472 105.77382555 56.98734611 105.7768867 C54.38763053 105.78553352 51.78796122 105.78707856 49.18823242 105.78857422 C47.32008263 105.7932054 45.45193377 105.79823047 43.58378601 105.80361938 C38.51304828 105.81672034 33.44232378 105.82318437 28.37157178 105.82763004 C25.19845163 105.83056576 22.02533506 105.83467161 18.85221672 105.83913422 C8.90978467 105.85280589 -1.03263916 105.86247297 -10.97507995 105.86633611 C-22.42425445 105.87080985 -33.87330915 105.88832737 -45.32244724 105.9173367 C-54.18897379 105.9390164 -63.05546679 105.94904381 -71.92201954 105.95037723 C-77.20921857 105.95142117 -82.49630493 105.95724061 -87.78347588 105.97519684 C-92.76495003 105.99178551 -97.74622817 105.9937811 -102.72772026 105.98505783 C-104.54523243 105.98429308 -106.3627556 105.988555 -108.18024063 105.99851608 C-133.39073396 106.12846151 -155.2350019 99.78719135 -173.80615234 82.00244141 C-177.27180454 78.53013728 -179.36134717 74.87508688 -181.74365234 70.62744141 C-163.15937954 62.61280567 -144.54412699 54.67738534 -125.86865234 46.87744141 C-111.02318041 40.67677334 -96.18827735 34.45215728 -81.36865234 28.18994141 C-80.45118225 27.80230621 -79.53371216 27.41467102 -78.58843994 27.01528931 C-73.91764776 25.04175056 -69.24707563 23.06769178 -64.57666016 21.09326172 C-55.30442754 17.17340541 -46.03145531 13.25530074 -36.75799561 9.33834839 C-33.80333337 8.09015361 -30.84892371 6.84136246 -27.89453125 5.5925293 C-26.09424986 4.83200384 -24.29395749 4.07150438 -22.49365234 3.31103516 C-21.67810883 2.9661203 -20.86256531 2.62120544 -20.02230835 2.26583862 C-18.55182988 1.64495516 -17.07953479 1.02834635 -15.60498047 0.41720581 C-14.07419099 -0.23231053 -12.56866498 -0.94104892 -11.07177734 -1.6652832 C-6.92371478 -2.9254486 -3.79028669 -1.89615517 0 0 Z " fill="#27A7E9" transform="translate(195.74365234375,102.37255859375)"/>
<path d="M0 0 C16.69361901 14.02229417 28.81635969 32.24255342 34.09667969 53.47460938 C32.57300781 53.63896484 32.57300781 53.63896484 31.01855469 53.80664062 C29.62788175 53.96638008 28.23725943 54.12656062 26.84667969 54.28710938 C25.8528125 54.39249023 25.8528125 54.39249023 24.83886719 54.5 C9.74338577 56.28012753 -3.28742886 62.30562269 -17.02001953 68.45166016 C-19.67090102 69.63379074 -22.3293814 70.79726586 -24.98925781 71.95898438 C-25.79559662 72.32658875 -26.60193542 72.69419312 -27.43270874 73.07293701 C-31.98725388 75.05075467 -34.97138367 76.04595557 -39.90332031 74.47460938 C-42.15966797 73.4375 -42.15966797 73.4375 -44.31738281 72.13085938 C-45.14633057 71.63513428 -45.97527832 71.13940918 -46.8293457 70.62866211 C-47.72000732 70.08282471 -48.61066895 69.5369873 -49.52832031 68.97460938 C-50.47763428 68.40363525 -51.42694824 67.83266113 -52.4050293 67.24438477 C-55.57785681 65.33200607 -58.74129786 63.40479668 -61.90332031 61.47460938 C-64.21421515 60.06655956 -66.52558859 58.65929592 -68.83691406 57.25195312 C-69.71391212 56.71784317 -69.71391212 56.71784317 -70.60862732 56.17294312 C-96.18481091 39.62244748 -96.18481091 39.62244748 -123.90332031 27.47460938 C-124.57492188 27.24515625 -125.24652344 27.01570313 -125.93847656 26.77929688 C-132.66281351 24.75200208 -139.92874532 24.81970553 -146.90332031 24.47460938 C-140.98627582 7.33983469 -121.87407875 -4.61084515 -106.38671875 -12.44042969 C-72.28098 -28.91083111 -29.43964086 -23.59400668 0 0 Z " fill="#0264B8" transform="translate(225.9033203125,23.525390625)"/>
<path d="M0 0 C13.60492006 10.43384847 23.33368958 25.01837843 26.28515625 42.1171875 C27.40662149 57.68312508 26.39298404 71.05840272 19.28515625 85.1171875 C10.22983559 79.99826301 1.2815506 74.73828592 -7.58984375 69.3046875 C-17.91994141 62.99863889 -28.29882194 56.780163 -38.71484375 50.6171875 C-49.5424526 44.20963992 -60.32614726 37.73587297 -71.06945801 31.1880188 C-82.22264275 24.39185806 -93.44814467 17.72318915 -104.71484375 11.1171875 C-102.40074261 9.57445341 -100.46631459 8.4859901 -97.95629883 7.39306641 C-97.20733841 7.06577545 -96.45837799 6.7384845 -95.6867218 6.40127563 C-94.47281013 5.87780045 -94.47281013 5.87780045 -93.234375 5.34375 C-91.96589973 4.79622574 -91.96589973 4.79622574 -90.67179871 4.23764038 C-88.87451902 3.46420439 -87.07642508 2.69265821 -85.27758789 1.92285156 C-82.57806825 0.76396324 -79.88581812 -0.41075816 -77.19335938 -1.5859375 C-51.00783786 -12.88030108 -24.87850012 -17.25386627 0 0 Z " fill="#1390DE" transform="translate(293.71484375,88.8828125)"/>
</svg>
