<svg xmlns="http://www.w3.org/2000/svg" width="1200" height="1200" viewBox="0 0 1200 1200" version="1.1"><path d="M 379 600 L 379 872 432 872 L 485 872 485.052 679.250 C 485.102 498.591, 485.210 486.651, 486.782 488.911 C 487.704 490.238, 537.535 576.863, 597.518 681.411 L 706.578 871.500 763.789 871.758 L 821 872.016 821 600.008 L 821 328 768 328 L 715 328 715 517.214 C 715 675.343, 714.780 706.188, 713.661 704.964 C 712.925 704.159, 664.260 619.013, 605.518 515.750 L 498.714 328 438.857 328 L 379 328 379 600" stroke="none" fill="#fcfaf8" fill-rule="evenodd"/><path d="M 572 37.718 C 544.933 38.940, 511.441 43.404, 479.500 50.046 C 463.434 53.387, 441.748 59.398, 421.694 66.069 C 288.530 110.361, 176.171 203.844, 107.516 327.467 C 56.282 419.720, 31.553 527.878, 38.003 631.500 C 44.441 734.928, 75.513 827.845, 132.013 912.627 C 163.895 960.467, 205.122 1005.181, 250.500 1041.135 C 327.730 1102.327, 417.437 1141.418, 515 1156.395 C 545.901 1161.138, 563.852 1162.408, 600 1162.408 C 649.079 1162.408, 679.527 1159.052, 726.500 1148.465 C 899.522 1109.469, 1047.360 985.887, 1117.406 821.695 C 1141.651 764.864, 1155.484 709.011, 1161.168 645 C 1163.069 623.597, 1162.769 570.696, 1160.624 549 C 1155.725 499.451, 1146.077 455.340, 1130.654 411.980 C 1058.313 208.601, 875.578 63.773, 662 40.542 C 634.937 37.598, 599.380 36.482, 572 37.718 M 379 600 L 379 872 432 872 L 485 872 485.052 679.250 C 485.102 498.591, 485.210 486.651, 486.782 488.911 C 487.704 490.238, 537.535 576.863, 597.518 681.411 L 706.578 871.500 763.789 871.758 L 821 872.016 821 600.008 L 821 328 768 328 L 715 328 715 517.214 C 715 675.343, 714.780 706.188, 713.661 704.964 C 712.925 704.159, 664.260 619.013, 605.518 515.750 L 498.714 328 438.857 328 L 379 328 379 600" stroke="none" fill="#fc8c04" fill-rule="evenodd"/></svg>