<?xml version="1.0" standalone="no"?>
<!DOCTYPE svg PUBLIC "-//W3C//DTD SVG 20010904//EN"
 "http://www.w3.org/TR/2001/REC-SVG-20010904/DTD/svg10.dtd">
<svg version="1.0" xmlns="http://www.w3.org/2000/svg"
 width="512.000000pt" height="512.000000pt" viewBox="0 0 512.000000 512.000000"
 preserveAspectRatio="xMidYMid meet">

<g transform="translate(0.000000,512.000000) scale(0.100000,-0.100000)"
fill="#000000" stroke="none">
<path d="M1525 4374 c-114 -21 -226 -78 -307 -156 -227 -219 -382 -671 -439
-1278 -15 -161 -15 -599 0 -760 68 -725 272 -1221 567 -1377 184 -98 489 -101
839 -9 490 130 1039 414 1491 773 149 119 375 346 468 472 85 114 166 270 192
371 22 84 22 216 0 300 -115 434 -744 1003 -1519 1375 -506 242 -972 347
-1292 289z m843 -1220 c40 -28 52 -66 52 -169 l0 -95 91 0 c87 0 92 -1 120
-29 40 -41 40 -91 0 -132 -28 -28 -33 -29 -120 -29 l-91 0 0 -235 c0 -253 6
-292 51 -315 12 -7 39 -10 61 -7 54 7 96 -9 114 -45 27 -51 2 -102 -66 -139
-15 -8 -57 -13 -106 -13 -106 0 -183 35 -230 105 -46 69 -54 132 -54 406 l0
243 -55 0 c-46 0 -60 4 -87 29 -44 39 -44 93 1 133 26 23 40 28 86 28 l55 0 0
95 c0 137 30 185 115 185 22 0 51 -7 63 -16z"/>
</g>
</svg>
