<?xml version="1.0" standalone="no"?>
<!DOCTYPE svg PUBLIC "-//W3C//DTD SVG 20010904//EN"
 "http://www.w3.org/TR/2001/REC-SVG-20010904/DTD/svg10.dtd">
<svg version="1.0" xmlns="http://www.w3.org/2000/svg"
 width="512.000000pt" height="512.000000pt" viewBox="0 0 512.000000 512.000000"
 preserveAspectRatio="xMidYMid meet">

<g transform="translate(0.000000,512.000000) scale(0.100000,-0.100000)"
fill="#000000" stroke="none">
<path d="M2214 4433 c-12 -2 -34 -18 -50 -34 l-29 -30 -5 -283 c-4 -232 -8
-286 -20 -301 -35 -42 -63 -45 -431 -45 l-351 0 -34 -34 -34 -34 0 -236 c0
-254 -5 -281 -53 -308 -15 -9 -89 -15 -239 -18 l-218 -5 -32 -33 -33 -32 -3
-450 c-3 -501 -3 -503 61 -533 29 -14 69 -17 232 -17 297 0 285 14 285 -335 0
-269 4 -292 57 -313 15 -6 93 -13 173 -14 152 -4 197 -15 216 -55 5 -10 11
-142 14 -294 7 -374 -19 -349 360 -349 288 0 316 5 344 59 13 25 16 74 16 295
l0 264 26 31 c49 59 139 59 188 0 l26 -31 0 -266 c0 -247 2 -269 20 -299 30
-50 62 -55 362 -51 l268 3 32 33 33 32 5 278 c3 152 9 284 13 293 4 8 22 24
40 35 27 16 54 19 177 22 80 2 158 8 173 14 53 21 57 44 57 313 0 349 -12 335
285 335 162 0 203 3 231 16 66 31 65 24 62 529 l-3 455 -33 32 -32 33 -218 5
c-150 3 -224 9 -239 18 -48 27 -53 54 -53 308 l0 236 -34 34 -34 34 -351 0
c-368 0 -396 3 -431 45 -12 15 -16 69 -20 300 -7 387 31 356 -427 354 -180 -1
-338 -4 -349 -6z m1485 -1877 c35 -19 71 -69 71 -101 0 -42 -102 -189 -194
-280 -194 -191 -421 -307 -716 -363 -130 -25 -357 -45 -470 -40 l-85 3 -3 44
c-2 24 1 48 5 52 5 5 67 14 138 19 292 24 507 94 720 235 132 88 248 222 329
382 14 29 34 57 43 63 24 15 122 6 162 -14z"/>
</g>
</svg>
